<?xml version="1.0" ?><!DOCTYPE svg  PUBLIC '-//W3C//DTD SVG 1.1//EN'  'https://www.w3.org/Graphics/SVG/1.1/DTD/svg11.dtd'><svg height="2048px" style="shape-rendering:geometricPrecision; text-rendering:geometricPrecision; image-rendering:optimizeQuality; fill-rule:evenodd; clip-rule:evenodd" viewBox="0 0 2048 2048" width="2048px" xml:space="preserve" xmlns="https://www.w3.org/2000/svg" xmlns:xlink="https://www.w3.org/1999/xlink"><defs><style type="text/css">
   <![CDATA[
    .fil2 {fill:none}
    .fil1 {fill:#FFFFFF}
    .fil0 {fill:#FFFFFF}
   ]]>
  </style></defs><g id="Layer_x0020_1"><g id="_336358712"><path class="fil0" d="M1776.22 1402.27c2.64449,3.24213 1.41142,1.67599 3.0378,4.44213 23.0221,39.1618 10.6276,94.6619 -4.05355,134.613 -4.58977,12.4937 -9.81024,24.7725 -15.4725,36.8138 -11.5642,24.5918 -25.1646,48.789 -40.3276,71.3457 -10.6146,15.789 -24.6083,35.0481 -39.1784,47.3717 -13.4197,11.3504 -33.7122,9.66024 -45.065,-3.75945 -11.3516,-13.4197 -9.66142,-33.7158 3.75945,-45.0674 10.8272,-9.15709 22.474,-26.0953 30.2103,-37.9264 13.2047,-20.1933 25.0063,-41.8949 34.9429,-63.8741 4.0004,-8.84883 7.72205,-17.8347 11.0717,-26.9492 5.64331,-15.3567 21.7028,-62.8619 10.5307,-77.7556 -3.57402,-4.76575 -19.7469,-7.19528 -25.1587,-7.78347 -18.502,-2.00906 -38.7449,-0.865749 -57.2363,0.935434 -9.74056,0.950788 -19.454,2.25591 -29.1083,3.86693 -31.291,5.22166 -81.4465,17.3291 -107.61,35.7756 -14.4366,10.1787 -34.4126,6.69567 -44.5725,-7.74686 -10.1551,-14.4354 -6.67796,-34.3807 7.74331,-44.5489 41.1792,-29.0327 116.929,-46.0441 167.441,-50.9681 45.3544,-4.42205 108.565,-6.15827 139.045,31.2154z" id="_336359264"/><path class="fil0" d="M1592.76 1577.04l0.113386 0.205512 -13.663 7.86497c-0.411024,0.236221 -0.82441,0.45 -1.2437,0.670867 -82.8946,45.2055 -170.531,83.9977 -261.95,108.473 -94.6276,25.3335 -194.626,39.6591 -292.65,39.6591 -139.234,0 -276.9,-24.4878 -406.989,-74.3186 -129.148,-49.4705 -247.663,-122.723 -349.931,-215.739 -13.0453,-11.8642 -13.9996,-32.1425 -2.13189,-45.1831 11.8665,-13.0406 32.1378,-13.9925 45.1784,-2.13071 96.3639,87.6438 208.024,156.659 329.714,203.274 122.793,47.0374 252.74,70.0749 384.16,70.0749 92.465,0 186.86,-13.5484 276.12,-37.4445 80.4638,-21.541 163.006,-50.2075 234.286,-94.2579l-0.312992 -0.54567 12.1902 -7.00749c0.538583,-0.351969 1.07126,-0.696851 1.63583,-1.02047l8.18741 -4.71615c7.65001,-4.56733 15.1937,-9.31536 22.6205,-14.2335 9.31536,-6.16772 18.4524,-12.6225 27.2953,-19.4469 13.9677,-10.7764 34.0453,-8.19804 44.8288,5.76497 10.787,13.9654 8.20631,34.0583 -5.76615,44.8394 -10.0713,7.7693 -20.4484,15.1453 -31.0524,22.1669 -6.78544,4.49292 -13.6725,8.83701 -20.6386,13.0512z" id="_336358376"/><path class="fil1" d="M1381.03 715.968l0 271.095c0,64.2709 18.8008,93.9473 56.3717,141.703l5.59252 7.10906c8.33386,10.591 12.5268,24.3898 11.6114,37.826 -0.80315,11.7957 -6.463,22.0075 -15.1736,29.8311l-0.625985 0.562205c-20.1473,18.0945 -40.5662,35.9315 -61.0666,53.6233 -23.5878,20.3551 -47.2949,40.6276 -71.2382,60.5623l-26.2689 21.8693c-49.2603,-24.4606 -72.026,-43.878 -105.993,-89.6729 -5.33977,-7.19764 -10.4622,-14.5524 -15.5858,-21.9036 -2.02087,-2.89843 -4.04646,-5.78859 -6.08386,-8.67048 -21.7547,21.8008 -45.0083,42.3863 -70.3595,59.7721 -26.6256,18.261 -54.6083,33.1099 -85.7398,41.9918 -19.5543,5.58071 -39.6059,8.97402 -59.7544,11.5488 -22.6134,2.89134 -45.3945,4.1067 -68.1863,4.1067 -74.7945,0 -148.212,-23.3752 -200.956,-78.0296 -53.563,-55.5024 -73.7505,-130.474 -73.7505,-206.041 0,-64.5603 15.1181,-127.537 50.8701,-181.839 35.1862,-53.4449 86.6233,-91.0394 145.029,-116.024l0.876379 -0.37441c30.8433,-13.1953 62.5914,-24.1122 95.3292,-31.5508 35.9079,-8.16024 70.6087,-17.7945 107.825,-17.7945l0.0625985 0c37.0701,0 74.0882,-7.94764 111.015,-10.8106l0.500788 -0.0389764 0.155906 -15.3886c-0.0389764,-1.7811 -0.0295276,-3.56929 -0.0200788,-5.33504 0.16063,-30.241 4.68544,-78.7359 -16.102,-103.064l-0.37441 -0.438189c-9.9945,-11.6976 -21.7843,-23.2016 -35.8796,-29.7886 -15.1441,-7.07835 -32.3894,-10.8142 -49.0855,-10.8142l-10.7504 0 -0.287008 0.022441c-27.5823,2.21103 -54.6851,11.9469 -76.2449,29.504 -20.3291,16.5543 -32.4,38.9729 -38.7142,64.167l-0.125197 0.499607c-2.65984,10.6146 -6.61418,20.3693 -14.0599,28.6181 -6.28819,6.96733 -14.2843,11.9516 -23.2996,14.5595l-6.36142 1.84016 -170.912 -21.7358c-26.7697,-3.40512 -23.3421,-18.7606 -46.6961,-24.2918l7.67245 -31.4929 0.145276 -0.627166c17.9799,-77.7981 54.2126,-147.136 118.875,-195.842 70.3123,-52.9607 160.927,-81.143 248.736,-81.1205l36.1087 0.00944883c51.3142,0.0129921 104.821,8.25827 153.509,24.5008 43.3618,14.465 85.5201,35.967 119.29,67.1634 81.8197,75.5835 81.0131,176.845 80.3209,280.029l-0.201969 30.176zm-275.788 180.332c0.0295276,-3.91181 0.0011811,-7.83544 0.0011811,-11.7449l0 -20.1921c-16.4988,0.290551 -33.0036,1.06063 -49.4292,2.50984 -18.8563,1.66299 -39.8977,3.04607 -58.0205,8.62914l-0.812599 0.250394c-31.1256,9.59174 -62.7,23.9008 -84.8257,48.5658 -24.8752,27.7311 -33.6048,62.2418 -33.6048,98.8548 0,28.4965 6.26575,59.6764 24.9425,82.1044 16.4929,19.8047 38.8217,28.4268 64.4233,28.4268 3.75118,0 7.84134,-0.848032 11.5217,-1.54016 2.89488,-0.543308 5.79095,-0.947245 8.713,-1.30039l3.62599 -0.438189c16.5366,-1.99961 33.5244,-13.7232 46.1622,-24.0177 15.0957,-12.2988 26.8441,-28.7906 36.1559,-45.7524 29.8689,-54.3969 31.2992,-101.107 31.115,-161.502 -0.0011811,-0.372048 -0.00236221,-0.745276 -0.00354331,-1.11732 -0.0011811,-0.585827 0.0106299,-1.16575 0.0354331,-1.73622z" id="_336358976"/></g></g><rect class="fil2" height="2048" width="2048"/></svg>