<?xml version="1.0" encoding="iso-8859-1"?>
<!-- Generator: Adobe Illustrator 16.0.0, SVG Export Plug-In . SVG Version: 6.00 Build 0)  -->
<!DOCTYPE svg PUBLIC "-//W3C//DTD SVG 1.1//EN" "http://www.w3.org/Graphics/SVG/1.1/DTD/svg11.dtd">
<svg xmlns="http://www.w3.org/2000/svg" xmlns:xlink="http://www.w3.org/1999/xlink" version="1.1" id="Capa_1" x="0px" y="0px" width="512px" height="512px" viewBox="0 0 430 430" style="enable-background:new 0 0 430 430;" xml:space="preserve">
<g>
	<g>
		<g>
			<path d="M357.509,335.553c-0.342-0.436-0.673-0.879-0.989-1.332c-3.194-1.42-6.2-3.158-8.99-5.166H28.727V62.818h296.11v58.37     c0,5.896,4.777,10.672,10.671,10.672h56.659l0.002,19.972h1.758c9.905,0,19.148,2.861,26.967,7.784v-43.639     c0-2.285-0.907-4.475-2.522-6.096L345.1,36.612c-1.613-1.615-3.806-2.522-6.094-2.522H25.856C11.598,34.091,0,45.686,0,59.94     v271.992c0,14.254,11.598,25.852,25.855,25.852h331.654V335.553L357.509,335.553z" fill="#FFFFFF"/>
			<path d="M230.703,178.879c0-5.817-4.717-10.533-10.534-10.533H70.568c-5.817,0-10.533,4.716-10.533,10.533     c0,5.816,4.716,10.534,10.533,10.534h149.601C225.986,189.413,230.703,184.695,230.703,178.879z" fill="#FFFFFF"/>
			<path d="M70.568,242.078h82.158c5.817,0,10.533-4.717,10.533-10.534s-4.716-10.533-10.533-10.533H70.568     c-5.817,0-10.533,4.716-10.533,10.533S64.751,242.078,70.568,242.078z" fill="#FFFFFF"/>
			<path d="M70.568,294.743h136.435c5.817,0,10.534-4.716,10.534-10.534c0-5.814-4.716-10.533-10.534-10.533H70.568     c-5.817,0-10.533,4.719-10.533,10.533C60.035,290.027,64.751,294.743,70.568,294.743z" fill="#FFFFFF"/>
			<path d="M406.92,372.83h-8.435v-44.881c2.683-1.56,4.699-4.121,5.544-7.181c14.786-4.08,25.647-17.621,25.647-33.705v-19.728     h-22.146v-20.979h22.146v-21.684h-22.146V205.79h22.146v-3.929c0-19.313-15.655-34.97-34.97-34.97h-16.841     c-19.314,0-34.969,15.657-34.969,34.97v3.929h22.146v18.884h-22.146v21.684h22.146v20.979h-22.146v19.728     c0,16.084,10.86,29.625,25.646,33.705c0.843,3.06,2.861,5.621,5.544,7.181v44.881h-8.435c-12.747,0-23.08,10.334-23.08,23.079     H430C430,383.164,419.667,372.83,406.92,372.83z" fill="#FFFFFF"/>
			<path d="M67.088,138.614c3.194,0,5.793-2.6,5.793-5.794v-9.323h7.875c13.947,0,22.61-7.819,22.61-20.407     c0-12.392-8.663-20.09-22.61-20.09H65.828c-3.194,0-5.793,2.598-5.793,5.794v44.026c0,3.194,2.599,5.794,5.793,5.794H67.088z      M72.881,95.845h7.875c9.765,0,9.765,5.265,9.765,7.245c0,2.067,0,7.561-9.765,7.561h-7.875V95.845z" fill="#FFFFFF"/>
			<path d="M152.439,103.09c0-12.392-8.664-20.09-22.611-20.09h-14.926c-3.195,0-5.793,2.598-5.793,5.794v44.026     c0,3.194,2.598,5.794,5.793,5.794h1.26c3.194,0,5.792-2.6,5.792-5.794v-9.323h7.875c0.413,0,0.825-0.008,1.253-0.025     l9.312,12.765c1.086,1.489,2.837,2.378,4.679,2.378h1.761l0.021-0.003c3.108-0.099,5.606-2.658,5.606-5.791     c0-1.386-0.492-2.716-1.39-3.766l-6.85-9.385C149.547,116.107,152.439,110.328,152.439,103.09z M129.828,110.65h-7.875V95.844     h7.875c9.766,0,9.766,5.265,9.766,7.245C139.594,105.157,139.594,110.65,129.828,110.65z" fill="#FFFFFF"/>
			<path d="M191.065,95.845c3.194,0,5.793-2.598,5.793-5.791v-1.26c0-3.196-2.599-5.794-5.793-5.794H163.54     c-3.194,0-5.793,2.598-5.793,5.794v44.026c0,3.194,2.599,5.794,5.793,5.794h28.407c3.194,0,5.793-2.6,5.793-5.794v-1.26     c0-3.193-2.599-5.793-5.793-5.793h-21.354v-9.199h17.575c3.194,0,5.793-2.6,5.793-5.793v-1.261c0-3.193-2.599-5.793-5.793-5.793     h-17.575v-7.877L191.065,95.845L191.065,95.845z" fill="#FFFFFF"/>
			<path d="M242.828,122.158c0.098-12.745-11.085-16.126-17.769-18.145c-7.821-2.365-8.562-3.375-8.562-5.459     c0-1.695,3.556-2.71,6.994-2.71c2.818,0,6.086,0.838,7.945,2.037c1.298,0.838,2.923,1.117,4.401,0.786     c1.502-0.335,2.833-1.278,3.649-2.585l0.63-1.008c1.668-2.668,0.874-6.229-1.771-7.938c-3.953-2.553-9.646-4.138-14.856-4.138     c-11.867,0-19.839,6.249-19.839,15.555c0,12.406,11.012,15.743,17.593,17.735c8.044,2.437,8.754,3.47,8.733,5.822     c0,2.891-5.15,3.655-7.875,3.655c-3.646,0-7.744-1.639-9.963-3.984c-1.068-1.129-2.572-1.787-4.173-1.812     c-1.574,0.006-3.041,0.609-4.13,1.694l-0.882,0.882c-2.24,2.241-2.257,5.9-0.036,8.161c4.792,4.876,12.145,7.904,19.186,7.904     C234.309,138.614,242.828,131.839,242.828,122.158z" fill="#FFFFFF"/>
			<path d="M267.887,125.768c-3.646,0-7.744-1.639-9.965-3.984c-1.068-1.129-2.57-1.787-4.172-1.811     c-1.574,0.006-3.041,0.609-4.129,1.694l-0.882,0.882c-2.241,2.241-2.259,5.9-0.037,8.161c4.792,4.876,12.146,7.904,19.186,7.904     c12.2,0,20.723-6.775,20.723-16.456c0.097-12.745-11.085-16.126-17.768-18.145c-7.825-2.365-8.562-3.375-8.562-5.459     c0-1.695,3.556-2.71,6.993-2.71c2.816,0,6.086,0.838,7.943,2.037c1.298,0.837,2.921,1.119,4.403,0.786     c1.504-0.335,2.834-1.278,3.651-2.585l0.63-1.008c1.667-2.668,0.873-6.229-1.771-7.938c-3.955-2.553-9.646-4.138-14.856-4.138     c-11.866,0-19.84,6.249-19.84,15.555c0,12.406,11.013,15.743,17.595,17.735c8.043,2.437,8.754,3.47,8.733,5.822     C275.762,125.003,270.611,125.768,267.887,125.768z" fill="#FFFFFF"/>
		</g>
	</g>
</g>
<g>
</g>
<g>
</g>
<g>
</g>
<g>
</g>
<g>
</g>
<g>
</g>
<g>
</g>
<g>
</g>
<g>
</g>
<g>
</g>
<g>
</g>
<g>
</g>
<g>
</g>
<g>
</g>
<g>
</g>
</svg>
